<svg xmlns="http://www.w3.org/2000/svg" width="57" height="58" viewBox="0 0 57 58" fill="none"><path d="M11.185 33.5C10.2006 33.0247 9.10188 32.75 7.9375 32.75C3.80219 32.75 0.4375 36.1147 0.4375 40.25C0.4375 44.3853 3.80219 47.75 7.9375 47.75C10.5325 47.75 12.8228 46.4244 14.17 44.4153L21.2547 47.9619C21.1328 48.4972 21.0625 49.0531 21.0625 49.625C21.0625 53.7603 24.4272 57.125 28.5625 57.125C32.6978 57.125 36.0625 53.7603 36.0625 49.625C36.0625 48.0706 35.5872 46.6259 34.7734 45.4269L44.7287 35.0178C45.9775 35.9441 47.5169 36.5 49.1875 36.5C53.3228 36.5 56.6875 33.1353 56.6875 29C56.6875 24.8647 53.3228 21.5 49.1875 21.5C47.4569 21.5 45.8669 22.0944 44.5956 23.0825L34.48 12.9669C35.4681 11.6956 36.0625 10.1056 36.0625 8.375C36.0625 4.23969 32.6978 0.875 28.5625 0.875C24.4272 0.875 21.0625 4.23969 21.0625 8.375C21.0625 8.945 21.1319 9.49906 21.2537 10.0334L14.605 12.4559C13.3581 10.0362 10.8409 8.375 7.9375 8.375C3.80219 8.375 0.4375 11.7397 0.4375 15.875C0.4375 20.0103 3.80219 23.375 7.9375 23.375C9.00438 23.375 10.0178 23.1481 10.9375 22.7441L14.3884 28.5519L11.185 33.5ZM7.9375 45.875C4.83531 45.875 2.3125 43.3522 2.3125 40.25C2.3125 37.1478 4.83531 34.625 7.9375 34.625C11.0397 34.625 13.5625 37.1478 13.5625 40.25C13.5625 43.3522 11.0397 45.875 7.9375 45.875ZM15.0053 42.7353C15.28 41.9562 15.4375 41.1219 15.4375 40.25C15.4375 37.9503 14.395 35.8916 12.7609 34.5153L15.4572 30.3509L23.5863 44.03C22.9019 44.6394 22.3291 45.3687 21.9044 46.1891L15.0053 42.7353ZM28.5625 15.875C30.2931 15.875 31.8831 15.2806 33.1544 14.2925L43.2709 24.4091C42.6644 25.1891 42.2106 26.09 41.9491 27.0706L36.0597 26.2606C36.0588 26.2362 36.0625 26.2119 36.0625 26.1875C36.0625 22.0522 32.6978 18.6875 28.5625 18.6875C25.9675 18.6875 23.6762 20.0131 22.33 22.0222L21.2116 21.4634L25.3159 15.125C26.2994 15.6003 27.3981 15.875 28.5625 15.875ZM29.5 42.1897V33.6219C32.5469 33.2394 35.0256 31.025 35.8019 28.1169L41.6912 28.9269C41.6912 28.9513 41.6875 28.9756 41.6875 29C41.6875 30.7906 42.3194 32.4341 43.3703 33.725L33.5266 44.0178C32.4231 43.04 31.0347 42.3828 29.5 42.1897ZM28.5625 20.5625C31.6647 20.5625 34.1875 23.0853 34.1875 26.1875C34.1875 29.2897 31.6647 31.8125 28.5625 31.8125C25.4603 31.8125 22.9375 29.2897 22.9375 26.1875C22.9375 23.0853 25.4603 20.5625 28.5625 20.5625ZM21.4947 23.7022C21.22 24.4813 21.0625 25.3156 21.0625 26.1875C21.0625 30.005 23.9312 33.1587 27.625 33.6228V42.1906C26.7362 42.3022 25.8972 42.5684 25.1331 42.9631L16.5944 28.5941L20.1859 23.0478L21.4947 23.7022ZM28.5625 55.25C25.4603 55.25 22.9375 52.7272 22.9375 49.625C22.9375 46.5228 25.4603 44 28.5625 44C31.6647 44 34.1875 46.5228 34.1875 49.625C34.1875 52.7272 31.6647 55.25 28.5625 55.25ZM49.1875 23.375C52.2897 23.375 54.8125 25.8978 54.8125 29C54.8125 32.1022 52.2897 34.625 49.1875 34.625C46.0853 34.625 43.5625 32.1022 43.5625 29C43.5625 25.8978 46.0853 23.375 49.1875 23.375ZM28.5625 2.75C31.6647 2.75 34.1875 5.27281 34.1875 8.375C34.1875 11.4772 31.6647 14 28.5625 14C25.4603 14 22.9375 11.4772 22.9375 8.375C22.9375 5.27281 25.4603 2.75 28.5625 2.75ZM21.895 11.7941C22.3534 12.6838 22.9806 13.4703 23.7391 14.1097L19.5241 20.6197L15.0053 18.3603C15.28 17.5812 15.4375 16.7469 15.4375 15.875C15.4375 15.305 15.3681 14.7509 15.2462 14.2166L21.895 11.7941ZM2.3125 15.875C2.3125 12.7728 4.83531 10.25 7.9375 10.25C11.0397 10.25 13.5625 12.7728 13.5625 15.875C13.5625 18.9772 11.0397 21.5 7.9375 21.5C4.83531 21.5 2.3125 18.9772 2.3125 15.875ZM12.5453 21.7803C13.1734 21.2891 13.7247 20.7041 14.17 20.0403L18.4984 22.2041L15.5256 26.795L12.5453 21.7803Z" fill="#0E59F2"></path></svg>